# xmcd
#
# Track frame offsets: 
#        150
#        12183
#        24234
#        37988
#        48752
#        60157
#        69997
#        80576
#        91793
#        106642
#        117904
#        131491
#        146132
#        159975
#        174790
#        188948
#        199428
#        211528
#        222569
#        233963
#        248888
#
# Disc length: 3474 seconds
#
# Revision: 1
# Processed by: cddbd v1.5.2PL0 Copyright (c) Steve Scherf et al.
# Submitted via: ExactAudioCopyFreeDBPlugin 1.0
#
DISCID=0d0d9015
DTITLE=Various Artist - Cooler Than Ice:  Arctic Records and the Rise
DTITLE=of Philly Soul
DYEAR=2012
DGENRE=Soul
TTITLE0=The Tiffanys - Happiest Girl in the World
TTITLE1=The Tiffanys - Love Me
TTITLE2=Barbara Mason - Girls Have Feelings, Too
TTITLE3=Barbara Mason - Come to Me
TTITLE4=The Volcanos - Baby
TTITLE5=The Volcanos - Make Your Move
TTITLE6=Cindy Gibson - Step by Step
TTITLE7=Cindy Gibson - Whisper You Love Me, Boy
TTITLE8=Barbara Mason - Yes, I'm Ready
TTITLE9=Barbara Mason - Keep Him
TTITLE10=The Volcanos - Storm Warning
TTITLE11=Kenny Gamble and The Floaters - Down by the Seashore
TTITLE12=Kenny Gamble and The Floaters - Down by the Seashore (instrumen
TTITLE12=tal)
TTITLE13=Barbara Mason - Sad, Sad Girl
TTITLE14=Herb Johnson - Gloomy Day
TTITLE15=Herb Johnson - Carfare Back
TTITLE16=The Lane Relations - Everything on Earth
TTITLE17=The Lane Relations - Cleaning Up Here
TTITLE18=The Volcanos - Help Wanted
TTITLE19=Barbara Mason - If You Don't (Love Me, Tell Me So)
TTITLE20=Barbara Mason - You Got What it Takes
EXTD=
EXTT0=
EXTT1=
EXTT2=
EXTT3=
EXTT4=
EXTT5=
EXTT6=
EXTT7=
EXTT8=
EXTT9=
EXTT10=
EXTT11=
EXTT12=
EXTT13=
EXTT14=
EXTT15=
EXTT16=
EXTT17=
EXTT18=
EXTT19=
EXTT20=
PLAYORDER=
